#!OML:ASF F:\VICON\USERDATA\INSTALL\rory3\rory3.ASF
:FULLY-SPECIFIED
:DEGREES
45
root -5.856287568727016 17.883026328585608 3.131992056350549 -14.866524326693465 30.471146527264636 -27.51984187893588
lfemur -2.788023346462758 20.01533461913552 6.252631071733731
ltibia 34.55788343218127
lfoot 4.716916483361933 11.753408704136517
ltoes -33.65477522392413
rfemur -28.045680150785646 19.38130230739793 24.715540822267176
rtibia 28.154642258801463
rfoot -3.7024420420771404 26.54817464677526
rtoes 45.19737851549372
lowerback 1.2671736912251723 -8.853352811546564 -14.047747479916687
upperback -1.8106259345180242 -12.35074684907697 -4.6578256800413484
thorax -0.3215157408974082 -6.017574252704554 3.2595703471254023
lowerneck -5.572196427805633 19.708777989600726 -0.19265886045625502
upperneck 11.994078842690598 28.578987983766357 -11.783110248270262
head 6.6927760038186195 13.113466778239287 -1.4542591612750255
lclavicle -6.214713388589101e-15 -1.1143799940838606e-14
lhumerus 113.63794728137208 -38.56560485725629 39.63030119598726
lradius 39.49142081238945
lwrist 0.8042893333533101
lhand -25.380173665701577 -3.3925052457915292
lfingers 7.125020000000001
lthumb -178.84305668644492 75.64557538293342
rclavicle -6.214713388589096e-15 -1.1143799940838604e-14
rhumerus 31.80748593596072 -26.189258492019572 -50.8140238085695
rradius 104.65118917678382
rwrist 1.4763797906024188
rhand -63.69362170142673 33.51328302978194
rfingers 7.125020000000001
rthumb -35.6889673253863 6.237325752879862
46
root -5.857331700914868 17.89047146678761 3.0461782526858894 -11.687259483311863 31.319606818377032 -24.71305404917264
lfemur -3.550693739272001 20.847245826846923 5.926849393067897
ltibia 34.32346750826624
lfoot 3.9148052868112755 11.690952361117136
ltoes -32.63751078126532
rfemur -28.60200744471954 18.73335696713803 24.656172627455973
rtibia 28.017151597721377
rfoot -4.001783838913377 25.96488572144986
rtoes 43.161430466063166
lowerback 1.7559767396584358 -8.746575959778275 -13.941240543451983
upperback -1.5957898867684044 -12.20353204049567 -4.475177535767084
thorax -0.35268617478997083 -5.949127094846926 3.4693791860412975
lowerneck -5.614859143955183 19.729738394730486 -0.2620693852666033
upperneck 12.263142682189264 28.635081558140627 -11.632604180641616
head 6.765680489499498 13.120796676361875 -1.3662557299779396
lclavicle -6.096532322150958e-15 -1.102830241467454e-14
lhumerus 113.75353306195248 -38.97571016044617 39.19090496469625
lradius 38.94694309717861
lwrist 1.4703832325959283
lhand -23.473137287828713 -2.467325987119228
lfingers 7.125020000000001
lthumb -177.00703326897562 69.95522238318117
rclavicle -6.0965323221509555e-15 -1.1028302414674538e-14
rhumerus 32.17808314263237 -25.34205212889009 -52.062614979740005
rradius 103.9627738692067
rwrist -0.9102083581970994
rhand -63.025842321230165 32.14815950643959
rfingers 7.125020000000001
rthumb -35.04999857909709 4.827616255380711
47
root -5.863531178292623 17.897144019312606 2.9421516998580244 -7.264122753175542 32.725033802183056 -20.75892907827115
lfemur -4.700555605594584 21.803876545452475 5.469781660794894
ltibia 34.12054217554516
lfoot 2.995690237121877 11.728299379250783
ltoes -31.251888066207112
rfemur -29.3762592201344 17.909652908221098 24.6141948975484
rtibia 27.85595069582721
rfoot -4.334337677641197 25.164646667452345
rtoes 40.47725821675914
lowerback 2.296019594206975 -8.637440133700679 -13.79826006707147
upperback -1.3510533736130221 -12.05574380794911 -4.25275697824285
thorax -0.3835577443487232 -5.894355134043472 3.702478172857937
lowerneck -5.67436265042182 19.74822013834604 -0.2505272056515368
upperneck 12.530841363276576 28.700089295242147 -11.524661751174666
head 6.8579909915166395 13.124882050649973 -1.2810147885732928
lclavicle -6.0379721813851035e-15 -1.0970567107092746e-14
lhumerus 113.80909772946202 -39.45799879405223 38.76410793515444
lradius 38.28929956268884
lwrist 2.140516496879446
lhand -21.57703870041871 -1.7198057652249794
lfingers 7.125020000000001
lthumb -175.1816203323826 63.6850969029746
rclavicle -6.037972181385104e-15 -1.0970567107092746e-14
rhumerus 32.64097587092199 -24.495196359303154 -53.48862737702481
rradius 103.2590918661846
rwrist -3.1427392643020937
rhand -62.28617323593894 30.639559549376013
rfingers 7.125020000000001
rthumb -34.34188305360581 3.2724007717242216
48
root -5.873158619304814 17.90266489125403 2.8302531254524426 -1.8472383339885283 34.995906328655764 -15.924602583832453
lfemur -6.224001147186241 22.80661648190716 4.8870735399996725
ltibia 33.98791523870128
lfoot 2.079029937949227 11.91500103892722
ltoes -29.50703397580796
rfemur -30.21450040626071 16.92039800688298 24.530966609817394
rtibia 27.740261565499864
rfoot -4.550576677214585 24.187405514253662
rtoes 37.19121840226296
lowerback 2.899334336207628 -8.499323354229372 -13.524703914237037
upperback -1.0285246894862738 -11.85359266012027 -3.957167167467397
thorax -0.37906316847792837 -5.819968906404652 3.9715196521739955
lowerneck -5.784505096766065 19.804995044949074 -0.10144907405147685
upperneck 12.87824297417243 28.815160446684313 -11.424958070417201
head 7.003706566104002 13.1444565979305 -1.2111752959076891
lclavicle -5.6131454306209765e-15 -1.0602630295746797e-14
lhumerus 113.95710439183458 -39.91727316603337 38.56965086509567
lradius 37.591620712365625
lwrist 2.9120419144917538
lhand -19.6809554535972 -0.8512336289941196
lfingers 7.125020000000001
lthumb -173.35641073216638 58.94183305990703
rclavicle -5.613145430620975e-15 -1.0602630295746798e-14
rhumerus 33.35571053785291 -23.62902526825582 -54.95486559042108
rradius 102.64250096399076
rwrist -5.112367696547139
rhand -61.478058926422676 29.123194144315164
rfingers 7.125020000000001
rthumb -33.567616243936904 1.7098135671519827
49
root -5.891871561082317 17.905049190775987 2.678003197776736 2.9664030891809148 37.70611563195486 -11.77106874995279
lfemur -8.268940821932881 23.68204593821513 4.061913180237857
ltibia 33.876760700918936
lfoot 0.9969044470675579 11.897517132639281
ltoes -27.82371564731423
rfemur -31.38975115883234 15.660914208398761 24.32988342506734
rtibia 27.553886163866974
rfoot -4.959655552160386 22.640868993807068
rtoes 33.21892480757262
lowerback 3.473956231385135 -8.458841337272569 -13.269138921227656
upperback -0.7175869783869988 -11.777957015905837 -3.654810849141328
thorax -0.3708314560496173 -5.817042930411537 4.2024536929415905
lowerneck -6.014502580831957 19.678572408861374 0.10882056642152382
upperneck 13.20135856843207 28.687413007988052 -11.415538952596222
head 7.165644499239784 13.042814638134232 -1.161814944222956
lclavicle -5.86684952892546e-15 -1.0822566942673109e-14
lhumerus 113.66371823771428 -40.81862158739155 38.32723082821461
lradius 36.62924916299296
lwrist 3.5414389590937816
lhand -18.037451332794234 -0.2685623395611394
lfingers 7.125020000000001
lthumb -171.77399960338423 53.65774107146911
rclavicle -5.8668495289254574e-15 -1.082256694267311e-14
rhumerus 33.577342988501094 -23.008757465505877 -56.71658339126461
rradius 101.8367500419043
rwrist -7.083053842148836
rhand -60.90362322904132 27.465870204834992
rfingers 7.125020000000001
rthumb -33.01718522071254 0.013911423171055759
50
root -5.913464341516049 17.906180602818626 2.518950764566379 7.414855996757311 41.35782563088641 -8.063182227264193
lfemur -10.702670938065276 24.502067103858224 3.1160739636082546
ltibia 33.88572715360921
lfoot -0.06392041570333973 11.945862692207482
ltoes -25.96941220773608
rfemur -32.5134587369371 14.243796844890806 24.049901201551904
rtibia 27.41937887886477
rfoot -5.296329870272854 20.751615908163153
rtoes 28.67478692607981
lowerback 4.058194406699785 -8.380103275322266 -12.799121998047404
upperback -0.30737453835410555 -11.651278473882396 -3.240079566879691
thorax -0.2716763359330301 -5.800717738827139 4.446206718041212
lowerneck -6.329634704515025 19.569842062080657 0.5002831946698673
upperneck 13.658894302307946 28.588308233507835 -11.436666460543139
head 7.400936440231866 12.94447272802851 -1.1493529446763908
lclavicle -5.6721681608465554e-15 -1.0659132357352877e-14
lhumerus 113.26070065616999 -41.66968156182909 38.50695726323653
lradius 35.674444338950195
lwrist 4.158209395683164
lhand -16.57768920761529 0.37354749005723065
lfingers 7.125020000000001
lthumb -170.36809585893184 51.66572181056782
rclavicle -5.6721681608465515e-15 -1.0659132357352877e-14
rhumerus 33.918666937010855 -22.286323059519855 -58.473102562559134
rradius 101.16867245113806
rwrist -8.779003256529439
rhand -60.38387370585665 25.968026458946646
rfingers 7.125020000000001
rthumb -32.51840667913966 -1.5041649679346012
